<svg xmlns="http://www.w3.org/2000/svg" style="display:none">
  <!-- Lucide-style line icons, 1.5–2px stroke, 24px grid. Referenced via <use href="/static/icons.svg#name"/>. -->
  <symbol id="play" viewBox="0 0 24 24"><polygon points="6 3 20 12 6 21 6 3"/></symbol>
  <symbol id="skip-forward" viewBox="0 0 24 24"><polygon points="5 4 15 12 5 20 5 4"/><line x1="19" y1="5" x2="19" y2="19"/></symbol>
  <symbol id="upload" viewBox="0 0 24 24"><path d="M21 15v4a2 2 0 0 1-2 2H5a2 2 0 0 1-2-2v-4"/><polyline points="17 8 12 3 7 8"/><line x1="12" y1="3" x2="12" y2="15"/></symbol>
  <symbol id="star" viewBox="0 0 24 24"><polygon points="12 2 15.09 8.26 22 9.27 17 14.14 18.18 21.02 12 17.77 5.82 21.02 7 14.14 2 9.27 8.91 8.26 12 2"/></symbol>
  <symbol id="star-filled" viewBox="0 0 24 24"><polygon points="12 2 15.09 8.26 22 9.27 17 14.14 18.18 21.02 12 17.77 5.82 21.02 7 14.14 2 9.27 8.91 8.26 12 2" fill="currentColor"/></symbol>
  <symbol id="trash" viewBox="0 0 24 24"><polyline points="3 6 5 6 21 6"/><path d="M19 6l-1 14a2 2 0 0 1-2 2H8a2 2 0 0 1-2-2L5 6"/><path d="M10 11v6"/><path d="M14 11v6"/><path d="M9 6V4a2 2 0 0 1 2-2h2a2 2 0 0 1 2 2v2"/></symbol>
  <symbol id="settings" viewBox="0 0 24 24"><circle cx="12" cy="12" r="3"/><path d="M19.4 15a1.65 1.65 0 0 0 .33 1.82l.06.06a2 2 0 1 1-2.83 2.83l-.06-.06a1.65 1.65 0 0 0-1.82-.33 1.65 1.65 0 0 0-1 1.51V21a2 2 0 0 1-4 0v-.09A1.65 1.65 0 0 0 9 19.4a1.65 1.65 0 0 0-1.82.33l-.06.06a2 2 0 1 1-2.83-2.83l.06-.06a1.65 1.65 0 0 0 .33-1.82 1.65 1.65 0 0 0-1.51-1H3a2 2 0 0 1 0-4h.09A1.65 1.65 0 0 0 4.6 9a1.65 1.65 0 0 0-.33-1.82l-.06-.06a2 2 0 1 1 2.83-2.83l.06.06a1.65 1.65 0 0 0 1.82.33H9a1.65 1.65 0 0 0 1-1.51V3a2 2 0 0 1 4 0v.09a1.65 1.65 0 0 0 1 1.51 1.65 1.65 0 0 0 1.82-.33l.06-.06a2 2 0 1 1 2.83 2.83l-.06.06a1.65 1.65 0 0 0-.33 1.82V9a1.65 1.65 0 0 0 1.51 1H21a2 2 0 0 1 0 4h-.09a1.65 1.65 0 0 0-1.51 1z"/></symbol>
  <symbol id="image" viewBox="0 0 24 24"><rect x="3" y="3" width="18" height="18" rx="2"/><circle cx="8.5" cy="8.5" r="1.5"/><polyline points="21 15 16 10 5 21"/></symbol>
  <symbol id="home" viewBox="0 0 24 24"><path d="M3 9l9-7 9 7v11a2 2 0 0 1-2 2h-4a2 2 0 0 1-2-2v-5a2 2 0 0 0-2-2 2 2 0 0 0-2 2v5a2 2 0 0 1-2 2H5a2 2 0 0 1-2-2z"/></symbol>
  <symbol id="bar-chart" viewBox="0 0 24 24"><line x1="12" y1="20" x2="12" y2="10"/><line x1="18" y1="20" x2="18" y2="4"/><line x1="6" y1="20" x2="6" y2="16"/></symbol>
  <symbol id="x" viewBox="0 0 24 24"><line x1="18" y1="6" x2="6" y2="18"/><line x1="6" y1="6" x2="18" y2="18"/></symbol>
  <symbol id="check" viewBox="0 0 24 24"><polyline points="20 6 9 17 4 12"/></symbol>
  <symbol id="check-square" viewBox="0 0 24 24"><polyline points="9 11 12 14 22 4"/><path d="M21 12v7a2 2 0 0 1-2 2H5a2 2 0 0 1-2-2V5a2 2 0 0 1 2-2h11"/></symbol>
  <symbol id="search" viewBox="0 0 24 24"><circle cx="11" cy="11" r="8"/><line x1="21" y1="21" x2="16.65" y2="16.65"/></symbol>
  <symbol id="grid" viewBox="0 0 24 24"><rect x="3" y="3" width="7" height="7"/><rect x="14" y="3" width="7" height="7"/><rect x="14" y="14" width="7" height="7"/><rect x="3" y="14" width="7" height="7"/></symbol>
  <symbol id="moon" viewBox="0 0 24 24"><path d="M21 12.79A9 9 0 1 1 11.21 3 7 7 0 0 0 21 12.79z"/></symbol>
  <symbol id="refresh" viewBox="0 0 24 24"><polyline points="23 4 23 10 17 10"/><polyline points="1 20 1 14 7 14"/><path d="M3.51 9a9 9 0 0 1 14.85-3.36L23 10"/><path d="M20.49 15a9 9 0 0 1-14.85 3.36L1 14"/></symbol>
  <symbol id="zap" viewBox="0 0 24 24"><polygon points="13 2 3 14 12 14 11 22 21 10 12 10 13 2"/></symbol>
</svg>
